<?xml version="1.0" encoding="UTF-8" standalone="no"?>
<svg
   xmlns:dc="http://purl.org/dc/elements/1.1/"
   xmlns:cc="http://creativecommons.org/ns#"
   xmlns:rdf="http://www.w3.org/1999/02/22-rdf-syntax-ns#"
   xmlns:svg="http://www.w3.org/2000/svg"
   xmlns="http://www.w3.org/2000/svg"
   xmlns:sodipodi="http://sodipodi.sourceforge.net/DTD/sodipodi-0.dtd"
   xmlns:inkscape="http://www.inkscape.org/namespaces/inkscape"
   inkscape:version="1.0beta1 (76ce730, 2019-10-19)"
   inkscape:export-ydpi="38.18"
   inkscape:export-xdpi="38.18"
   inkscape:export-filename="/Volumes/HDD/usr/Projects/Anshu_Clients/ogivetech-frontend/src/assets/images/png/address.png"
   sodipodi:docname="address.svg"
   version="1.1"
   width="512"
   viewBox="0 0 512 512"
   height="512"
   enable-background="new 0 0 512 512"
   id="Capa_1">
  <metadata
     id="metadata844">
    <rdf:RDF>
      <cc:Work
         rdf:about="">
        <dc:format>image/svg+xml</dc:format>
        <dc:type
           rdf:resource="http://purl.org/dc/dcmitype/StillImage" />
      </cc:Work>
    </rdf:RDF>
  </metadata>
  <defs
     id="defs842" />
  <sodipodi:namedview
     inkscape:current-layer="g837"
     inkscape:window-maximized="0"
     inkscape:window-y="23"
     inkscape:window-x="0"
     inkscape:cy="560"
     inkscape:cx="400"
     inkscape:zoom="0.35"
     showgrid="false"
     id="namedview840"
     inkscape:window-height="699"
     inkscape:window-width="1280"
     inkscape:pageshadow="2"
     inkscape:pageopacity="0"
     guidetolerance="10"
     gridtolerance="10"
     objecttolerance="10"
     borderopacity="1"
     inkscape:document-rotation="0"
     bordercolor="#666666"
     pagecolor="#ffffff" />
  <g
     id="g837">
    <path
       style="fill:#de1b2f;fill-opacity:1"
       id="path833"
       d="m256.002 246.195c33.083 0 59.998-26.916 59.998-60s-26.915-60-59.998-60c-33.085 0-60.002 26.916-60.002 60s26.917 60 60.002 60zm0-90c16.541 0 29.998 13.458 29.998 30s-13.457 30-29.998 30c-16.543 0-30.002-13.458-30.002-30s13.459-30 30.002-30z" />
    <path
       style="stroke:#de1b2f;stroke-opacity:1;fill:#de1b2f;fill-opacity:1"
       id="path835"
       d="m446.861 345h-100.391c46.877-44.745 89.53-88.605 89.53-165 0-102.932-77.29-180-179.998-180-102.916 0-180.002 77.297-180.002 180 0 76.395 42.654 120.255 89.532 165h-100.393l-54.855 167h491.432zm-340.861-165c0-86.916 63.085-150 150.002-150 86.915 0 149.998 63.084 149.998 150 0 97.238-82.076 131.678-149.998 215.423-20.412-25.166-42.242-45.939-63.47-66.136-48.346-46.001-86.532-82.336-86.532-149.287zm-42.131 265h108.131v-30h-98.277l13.139-40h109.138v-.674c39.846 39.513 50.626 59.317 60.002 71.126 9.608-12.102 20.036-31.494 59.998-71.124v.672h109.139l13.139 40h-98.278v30h108.131l12.153 37h-408.568z" />
  </g>
</svg>
